External Loads File
version=1
nRows=31
nColumns=13
Range=5.000000e-03-10 seconds
endheader
time 	forceRightX 	forceRightY 	forceRightZ 	pointRightX 	pointRightY 	pointRightZ 	forceLeftX 	forceLeftY 	forceLeftZ 	pointLeftX 	pointLeftY 	pointLeftZ 		
0.005000 14.984687 122.914108 -0.000000 0.455178 0.430438 -0.189810 31.484990 172.974322 -0.000000 0.183643 0.230716 -0.440351
0.010000 14.885285 122.092058 -0.000000 0.455142 0.430538 -0.189825 33.019641 172.960362 -0.000000 0.183725 0.230639 -0.440343
0.015000 14.833981 121.329938 -0.000000 0.455105 0.430616 -0.189826 34.364123 172.805246 -0.000000 0.183814 0.230551 -0.440360
0.020000 14.854873 120.664284 -0.000000 0.455089 0.430697 -0.189854 35.403897 172.444776 -0.000000 0.183898 0.230474 -0.440346
0.025000 14.772916 120.118354 -0.000000 0.454904 0.431238 -0.189623 35.869417 171.917930 -0.000000 0.183907 0.230430 -0.440261
0.030000 14.844041 119.638245 -0.000000 0.454881 0.431384 -0.189640 36.188143 171.156436 -0.000000 0.183963 0.230391 -0.440244
0.035000 14.893841 119.227348 -0.000000 0.454878 0.431466 -0.189662 36.196775 170.226291 -0.000000 0.184052 0.230324 -0.440254
0.040000 14.902431 118.882163 -0.000000 0.454861 0.431550 -0.189674 35.962763 169.163808 -0.000000 0.184121 0.230275 -0.440254
0.045000 14.872827 118.595758 -0.000000 0.454854 0.431595 -0.189703 35.588712 168.018093 -0.000000 0.184179 0.230242 -0.440255
0.050000 14.792604 118.355731 -0.000000 0.454850 0.431623 -0.189684 35.146647 166.861462 -0.000000 0.184221 0.230206 -0.440233
0.055000 14.666425 118.146078 -0.000000 0.454867 0.431659 -0.189706 34.703689 165.771988 -0.000000 0.184254 0.230142 -0.440227
0.060000 14.565767 117.943531 -0.000000 0.454903 0.431668 -0.189673 34.369670 164.793699 -0.000000 0.184261 0.230180 -0.440251
0.065000 14.460826 117.731020 -0.000000 0.454920 0.431660 -0.189692 34.091958 163.973598 -0.000000 0.184260 0.230196 -0.440237
0.070000 14.365204 117.483846 -0.000000 0.454962 0.431651 -0.189696 33.913003 163.334153 -0.000000 0.184229 0.230217 -0.440236
0.075000 14.256511 117.196890 -0.000000 0.455002 0.431636 -0.189702 33.855643 162.900969 -0.000000 0.184210 0.230245 -0.440237
0.080000 14.128210 116.884629 -0.000000 0.455059 0.431613 -0.189701 33.955081 162.680854 -0.000000 0.184162 0.230284 -0.440226
0.085000 13.980010 116.573183 -0.000000 0.455113 0.431577 -0.189694 34.216655 162.661624 -0.000000 0.184108 0.230358 -0.440234
0.090000 13.809082 116.285844 -0.000000 0.455163 0.431513 -0.189695 34.595355 162.806625 -0.000000 0.184034 0.230409 -0.440235
0.095000 13.619764 116.031722 -0.000000 0.455217 0.431459 -0.189679 35.041389 163.062257 -0.000000 0.183954 0.230471 -0.440245
0.100000 13.409715 115.811659 -0.000000 0.455265 0.431403 -0.189705 35.520984 163.390452 -0.000000 0.183878 0.230532 -0.440240
0.105000 13.177180 115.631815 -0.000000 0.455312 0.431361 -0.189730 36.013066 163.769522 -0.000000 0.183810 0.230604 -0.440230
0.110000 12.932612 115.509754 -0.000000 0.455333 0.431326 -0.189731 36.499025 164.179768 -0.000000 0.183727 0.230661 -0.440215
0.115000 12.696051 115.458971 -0.000000 0.455364 0.431282 -0.189737 36.969956 164.597670 -0.000000 0.183667 0.230706 -0.440196
0.120000 12.472414 115.471669 -0.000000 0.455388 0.431240 -0.189730 37.400270 164.992914 -0.000000 0.183638 0.230747 -0.440178
0.125000 12.260123 115.525367 -0.000000 0.455407 0.431235 -0.189739 37.751439 165.332492 -0.000000 0.183611 0.230779 -0.440181
0.130000 12.074955 115.603628 -0.000000 0.455415 0.431229 -0.189741 37.999505 165.588765 -0.000000 0.183623 0.230788 -0.440191
0.135000 11.947108 115.704728 -0.000000 0.455430 0.431241 -0.189746 38.131442 165.739134 -0.000000 0.183648 0.230786 -0.440204
0.140000 11.896404 115.834538 -0.000000 0.455437 0.431247 -0.189728 38.133907 165.776027 -0.000000 0.183684 0.230749 -0.440202
0.145000 11.934565 115.993192 -0.000000 0.455434 0.431270 -0.189748 38.014507 165.702081 -0.000000 0.183742 0.230724 -0.440216
0.150000 12.055365 116.170862 -0.000000 0.455431 0.431299 -0.189751 37.770740 165.512677 -0.000000 0.183807 0.230691 -0.440218
0.155000 12.223952 116.352320 -0.000000 0.455415 0.431343 -0.189747 37.375671 165.207331 -0.000000 0.183882 0.230629 -0.440228
